<svg width="512" height="512" viewBox="0 0 512 512" xmlns="http://www.w3.org/2000/svg">
  <defs>
    <radialGradient id="glow" cx="0.5" cy="0.5" r="0.5">
      <stop offset="0%" stop-color="#33ff99" stop-opacity="0.55"/>
      <stop offset="60%" stop-color="#33ff99" stop-opacity="0.15"/>
      <stop offset="100%" stop-color="#33ff99" stop-opacity="0"/>
    </radialGradient>
  </defs>

  <!-- background -->
  <rect x="8" y="8" width="496" height="496" rx="96" fill="#20283a"/>
  <rect x="8" y="8" width="496" height="496" rx="96" fill="none" stroke="#3b475e" stroke-width="10"/>

  <!-- buff glow + sparkle above first place -->
  <circle cx="256" cy="138" r="120" fill="url(#glow)"/>
  <path d="M 256 62 C 264 106, 276 118, 320 126 C 276 134, 264 146, 256 190 C 248 146, 236 134, 192 126 C 236 118, 248 106, 256 62 Z"
        fill="#33ff99"/>
  <path d="M 330 78 C 333 94, 338 99, 354 102 C 338 105, 333 110, 330 126 C 327 110, 322 105, 306 102 C 322 99, 327 94, 330 78 Z"
        fill="#7dffc0"/>
  <path d="M 186 160 C 188 172, 192 176, 204 178 C 192 180, 188 184, 186 196 C 184 184, 180 180, 168 178 C 180 176, 184 172, 186 160 Z"
        fill="#7dffc0"/>

  <!-- podium: 2nd, 1st, 3rd -->
  <rect x="70" y="292" width="116" height="136" rx="10" fill="#aab4c4"/>
  <rect x="198" y="232" width="116" height="196" rx="10" fill="#f5c542"/>
  <rect x="326" y="326" width="116" height="102" rx="10" fill="#c9834a"/>

  <text x="128" y="382" font-family="Arial, sans-serif" font-size="72" font-weight="bold"
        fill="#20283a" text-anchor="middle">2</text>
  <text x="256" y="340" font-family="Arial, sans-serif" font-size="84" font-weight="bold"
        fill="#20283a" text-anchor="middle">1</text>
  <text x="384" y="404" font-family="Arial, sans-serif" font-size="60" font-weight="bold"
        fill="#20283a" text-anchor="middle">3</text>
</svg>
